<svg id="Layer_1" data-name="Layer 1" xmlns="http://www.w3.org/2000/svg" viewBox="0 0 1080 1080"><defs><style>.cls-1{fill:#c7ab59;}.cls-2{fill:#ded2a8;}.cls-3{fill:#699e3c;}</style></defs><path class="cls-1" d="M195.53,638.3v.83a17,17,0,0,0-6.55,3.19l-70.9,56.27a21.11,21.11,0,0,0-7.63,16.53v41.65a12.81,12.81,0,0,1,1.38-.1c10-.23,20.07,1,29.94,2.36a12.39,12.39,0,0,1,3.35-1.32,82.14,82.14,0,0,1,34.94-.52,180.82,180.82,0,0,1,70.31,1.91c11.5,2.67,22.32,7.64,33.75,10.59,6.41,1.66,12.53,4.06,16.79,8.51V715.12a24.27,24.27,0,0,1,8.81-19l70.9-56.27A22,22,0,0,1,383,638.3Z"/><path class="cls-1" d="M473.56,699.09l-65.69-54a16.54,16.54,0,0,0-21.15-.19l-70.9,56.27a21.11,21.11,0,0,0-7.63,16.54V773.1a252.42,252.42,0,0,1,27.61,7.19c5.95,1.85,11.91,3.7,18,5.22a86.59,86.59,0,0,0,15.94,2.81,19.25,19.25,0,0,1,3.54.61V773.59a25.76,25.76,0,0,1,51.51,0v37.73H480.2a22.28,22.28,0,0,0,.75-5.47V715.43A21.14,21.14,0,0,0,473.56,699.09Z"/><path class="cls-2" d="M514.67,1038.75c-98.82,0-193.23-31.65-271.21-86.65a328.38,328.38,0,0,1,96,23.08c30.32,12.25,108.28,42.86,179.07,63.47C517.21,1038.66,516,1038.75,514.67,1038.75Z"/><path class="cls-2" d="M627.7,1036.08c-71.89-4.9-232.13-68.36-263.82-81.16-69.76-28.17-126.51-27.25-146.78-25.69a473.78,473.78,0,0,1-65.46-70.3c36.19-3.94,112.82-4,209.42,42.64,116.56,56.32,278.39,87.71,375.77,96.34A469.16,469.16,0,0,1,627.7,1036.08Z"/><path class="cls-2" d="M790.85,976.49c-78.14.26-276-30.35-411.37-95.75C259.69,822.86,168.09,831.86,137,837.54a464.47,464.47,0,0,1-36.36-67.6c70.63-6.16,172.59-.74,287.42,49.93,49.2,21.74,105.2,38.33,163.57,51.08,4.9,1.25,14.84,3.36,22.16,4.65,37.54,7.5,75.8,13.53,113.74,18.26,15.31,1.38,21.86,2.9,22.45,2.62,56.77,6.39,112.25,10.17,162.58,12.22A471.16,471.16,0,0,1,790.85,976.49Z"/><path class="cls-3" d="M898.69,868.12c-54.38-1.53-116.79-5-181-12-10.48-30.3-12.78-64.56-8-98.67,3-23.78,8.94-47.46,16.59-70.79a52.44,52.44,0,0,0,11.25,8.25c9.78,5.33,20.36,7.14,30.54,7.1a66.15,66.15,0,0,0,29.14-7.11c9-4.69,17.55-11.06,23.88-21.91a106.12,106.12,0,0,0-28.93-10.36,116.91,116.91,0,0,0-24.7-2.3,124.45,124.45,0,0,0-23.23,2.49c-3.34.6-6.7,1.35-10.36,2.18q2.2-5.88,4.51-11.72c2.27-5.61,4.74-11.15,7.16-16.71a49.25,49.25,0,0,0,14.63,12c9.79,5.33,20.36,7.14,30.54,7.09a66,66,0,0,0,29.14-7.1c9-4.69,17.55-11.06,23.88-21.91a105,105,0,0,0-21.21-8.46,61.19,61.19,0,0,0,25.71-10.75c8.91-6.64,16.68-15.65,19.49-28.26-10.26-1.38-18.29-2-25.69-2.28a62.31,62.31,0,0,0,27.08-15.72c7.42-7.54,13.59-16.69,15.61-29.23a136.74,136.74,0,0,0-30.74.28,162.62,162.62,0,0,0-23.44,4.63,166.62,166.62,0,0,0-20.56,6.9c-5.59,2-11.53,4.09-19.86,6.42q8.49-14.28,17.51-28.27a29.65,29.65,0,0,0,12.74,7.19,40.45,40.45,0,0,0,34-6,32,32,0,0,0,11.33-13.88,101.1,101.1,0,0,0-16.69.89c-4.91.76-9.55,1.26-14.07,2.21s-9.06,1.71-13.84,2.79c-3.44.79-6.93,1.65-10.86,2.7q7.13-11,14.57-21.74c3.76,2.46,8.38,3.3,12.59,3.37a34.72,34.72,0,0,0,16-4,39.49,39.49,0,0,0,12.44-10,33,33,0,0,0,7-15,41.93,41.93,0,0,0-8.26,1.47,53,53,0,0,0-7.05,2.23,100.55,100.55,0,0,0-12.21,5.39c-3.79,2-7.36,4.08-11.08,6.28-1.31.77-2.63,1.58-4,2.41.73-1,1.42-2.09,2.16-3.11a5.27,5.27,0,0,0,.46.31c.09-.5.21-.92.31-1.4q8-11.12,16.35-22c-5.12,5.47-10.1,11.08-15.06,16.71.77-2.71,1.56-5.15,2.25-7.58,1.21-4.15,2.35-8.13,3.33-12.29a103.7,103.7,0,0,0,2.17-13.17,53.09,53.09,0,0,0,.4-7.39A41.89,41.89,0,0,0,842,430a33,33,0,0,0-12.78,10.48A39.15,39.15,0,0,0,822.62,455a34.67,34.67,0,0,0,.11,16.54c1.21,4.44,3.55,9,7.45,12.07-2.51,2.9-4.93,5.88-7.41,8.81-.46.24-.87.46-1.36.7.13.15.31.24.45.39q-7.07,8.41-14,17c1.15-5.62,1.91-10.09,2.39-14.33a99.65,99.65,0,0,0,.57-13.61,91.29,91.29,0,0,0-1.45-13.71,82.75,82.75,0,0,0-4.91-16.93A29.89,29.89,0,0,0,791,465.44,36.92,36.92,0,0,0,792.27,501c3.11,5,7.54,9.47,13.9,11.67Q795.88,525.63,786,539c.73-6.11,1.46-10.72,1.87-15.08a64.21,64.21,0,0,0-.1-17.91,72.29,72.29,0,0,0-5.36-18.73,95.61,95.61,0,0,0-14-22.6c-9.89,5.76-15.16,13.48-18.67,21.51a48.53,48.53,0,0,0-3.28,25.57c0,.2.1.41.13.62a165.67,165.67,0,0,0-13.24-25.78c-10.4,7.12-15.81,16.89-19,27a60.73,60.73,0,0,0-.63,31.76,56.42,56.42,0,0,0,16.61,28.46,42.4,42.4,0,0,0,23.67,11.37q-8.49,13.18-16.46,26.73c-2-6.32-4-11.53-5.79-16.65a201.64,201.64,0,0,0-9.61-21.11,186.13,186.13,0,0,0-12.54-20,220,220,0,0,0-19.37-23.31c-8.7,9.32-11.74,20.54-12.28,31.38a61.11,61.11,0,0,0,7.4,31.48,59.34,59.34,0,0,0,22.35,23.79,48.45,48.45,0,0,0,22.48,7.16c-3.69,6.6-7.36,13.22-10.85,20-1.82,3.56-3.59,7.16-5.35,10.77-1.67-5.07-3.35-9.47-4.87-13.8a203.54,203.54,0,0,0-9.61-21.11,185.06,185.06,0,0,0-12.54-20,221.23,221.23,0,0,0-19.37-23.32c-8.7,9.32-11.74,20.54-12.29,31.38a61.19,61.19,0,0,0,7.41,31.48,59.28,59.28,0,0,0,22.35,23.79,48.41,48.41,0,0,0,21.59,7.1c-11.67,25.77-21.47,52.66-27.83,81-7.4,31.45-9.74,65.27-4.3,99-29.21-3.9-58.51-8.57-87.35-14.19a20.75,20.75,0,0,0-1.58-3.07l-.16-.24C560.58,795.19,546.4,748.9,542,701c-3.54-34.15-2.84-69,.46-103.83a70.15,70.15,0,0,0,20.72,7.48c13.87,2.73,27.6,1.34,40.46-1.91A102.48,102.48,0,0,0,639,585.83c10.44-7.93,20-17.49,26.18-31.09a166.65,166.65,0,0,0-38.85,1,281.59,281.59,0,0,0-33.25,6.71c-10.56,2.65-20.69,6-31,9.46-5.64,1.83-11.24,3.76-17.42,5.82.92-7.54,1.9-15.08,3-22.61,1.47-9.5,3.14-19,4.91-28.46A66.27,66.27,0,0,0,577.74,537c13.86,2.73,27.6,1.34,40.45-1.91a102.31,102.31,0,0,0,35.3-16.91c10.45-7.92,20-17.49,26.18-31.09a166.65,166.65,0,0,0-38.85,1,279.79,279.79,0,0,0-33.24,6.72c-10.56,2.64-20.7,6-31.06,9.45-6.7,2.18-13.33,4.49-21,7q4.17-20.38,9.23-40.65a70.86,70.86,0,0,0,32.78,12.92c14.29,2.22,29.09.34,42.69-4.47a91,91,0,0,0,36-23.05c9.69-10.41,17.63-23.05,19.38-38.46-14.77,3.77-26.3,7.65-37.59,11.34l-31.66,10.88L595,450.79c-5.45,2.28-11.15,3.88-17.17,6.4-3.47,1.45-7,2.72-10.79,4.24q6.15-23.79,13.37-47.33c9.37,8.67,22.29,13.11,35.22,13.7,14.93.36,29.41-4,41.74-10.86a92.77,92.77,0,0,0,30.48-27.51c7.73-11.18,13.72-23.8,14.6-38.92A226.12,226.12,0,0,0,666.25,365c-10.61,5.06-20,10.66-29.24,15.62L610,395.52a294.44,294.44,0,0,1-27.38,11.82c4.74-15.14,9.82-30.19,15.11-45.18,6.12,5,13.44,7,20.53,7.64a50.67,50.67,0,0,0,43.3-19.18,40.51,40.51,0,0,0,8.92-23.57c-5,.22-8.64,1.32-12.49,2s-7,1.89-10.31,2.7c-6.28,2.13-12.07,4-17.44,6.6a160.82,160.82,0,0,0-16.37,8.53c-4.35,2.6-8.75,5.47-13.94,9.11q6.07-17,12.69-33.76c5.53,1.35,11.49.61,16.77-.92A50.25,50.25,0,0,0,648,310.74a60.42,60.42,0,0,0,13.12-16.26,72,72,0,0,0,4.09-9.61,51.93,51.93,0,0,0,2-10.62,60.12,60.12,0,0,0-9.08,5.46,89.28,89.28,0,0,0-7.82,5.83c-5,3.82-9.51,7.9-14,11.72s-8.76,7.8-13.31,11.59c-2.44,2-4.88,4-7.54,6.08,1.17-2.91,2.25-5.86,3.44-8.76.37.16.73.34,1.11.48-.15-.79-.24-1.51-.37-2.27q7-16.87,14.53-33.53c-5.23,9.64-10.24,19.41-15.16,29.22-.51-4.43-.68-8.51-.88-12.56-.26-5.92-.31-11.72-.38-17.64s-.19-12-.75-18.26a87.85,87.85,0,0,0-1-9.71A59.21,59.21,0,0,0,614,231.51a51.54,51.54,0,0,0-6.53,8.61,72.72,72.72,0,0,0-4.36,9.5,60.5,60.5,0,0,0-3.2,20.64,50.15,50.15,0,0,0,4.74,20.93c2.63,5.36,6.5,10.68,11.87,13.79-2.27,4.58-4.38,9.23-6.58,13.84-.78.5-1.51,1-2.35,1.52.44.24.89.4,1.34.61q-6.81,14.31-13.26,28.81c-.62-8.61-1.34-15.19-2.32-21.43a161.75,161.75,0,0,0-3.95-18c-1.43-5.8-3.72-11.43-6.11-17.61-1.51-3.06-2.61-6.28-4.54-9.65s-3.45-6.93-6.47-10.87a40.57,40.57,0,0,0-12.36,22,50.59,50.59,0,0,0,13,45.52c5.71,5.7,13,10.48,22.2,11.3Q585,373.72,575.83,396.87c-2.64-8.84-4.47-15.67-6.45-22.27a192.34,192.34,0,0,0-8-24,170.51,170.51,0,0,0-11.88-24.14,135.53,135.53,0,0,0-20-26.08c-8.09,10.5-11,21.76-11.92,32.87a73.69,73.69,0,0,0,5.14,32.86,69.12,69.12,0,0,0,20.48,28.12c8.22,6.34,18.51,10.9,29.45,10.65-.3.76-.63,1.52-.93,2.29q-8.48,21.88-16.06,44.18c-1.91-3.14-3.78-6-5.3-9.19-1.48-2.66-2.95-5.14-4.43-7.47-1.27-2.6-2.56-5-3.91-7.32-5-9.54-10-17.92-14.57-27.14-4.77-9.05-9.7-18.3-15.48-28.14a290.75,290.75,0,0,0-21.05-31.86c-8.29,12.5-10.71,26.35-10.61,39.92a89.44,89.44,0,0,0,10.31,39.6,79.94,79.94,0,0,0,28.45,31c3.09,1.84,6.24,3.52,9.41,5A99.58,99.58,0,0,0,538.68,459c1.75.38,3.41.85,5.17,1.11s3.61.31,5.47.27c1.08,0,2.14,0,3.21,0q-7.77,23.44-14.38,47.32c-6.15-7.88-12-14.2-17.36-20.77l-21.55-24.31c-7.16-7.83-14.39-15.73-22.39-24.05S460.31,421.66,449,411.82c-5.46,14.2-4.52,28.77-.95,42.19a89.47,89.47,0,0,0,20.17,36.48c9.4,10.48,21.19,19.08,34.56,23.84a68.52,68.52,0,0,0,32.34,4.44c-2.85,10.76-5.55,21.58-8,32.47-1.66,7.52-3.19,15.09-4.66,22.68-5.73-7.2-11.19-13.15-16.2-19.3l-21.54-24.31c-7.17-7.83-14.4-15.73-22.39-24s-16.54-16.91-27.83-26.75c-5.46,14.2-4.52,28.77-1,42.19a89.37,89.37,0,0,0,20.18,36.48c9.39,10.48,21.18,19.08,34.56,23.84a68.49,68.49,0,0,0,31.83,4.5c-6.72,38.14-10.58,77.05-9.28,116.53.18,12.93,1.58,25.87,2.87,38.84l3.07,19.41c.94,6.49,2.79,12.86,4.16,19.32a310.92,310.92,0,0,0,14.65,44.84c-46-11.15-89.78-25-128.89-42.31-129-56.91-242.34-57.94-323.54-50.9l-24.84,2.37,8.8,21.09c104.56,167.64,210.74,292.52,468.32,311.81,146.34,11,282.29-69.29,374.26-175L929.4,869ZM753.29,619.36c3.55-7.55,7.2-15.06,11-22.51a49.52,49.52,0,0,0,19.94,16.58c.53.27,1.11.42,1.65.67a132.16,132.16,0,0,0-19,2.36C762.55,617.23,758.25,618.23,753.29,619.36Zm54.44-42.91c1.4.46,2.8.87,4.21,1.21-7.19.71-14.32,1.91-22.28,3.45-6,1.42-12.27,2.69-19.68,4.85q7.44-14,15.39-27.77C790.11,566.94,798.51,573.16,807.73,576.45Zm-49.42-19.87a203.25,203.25,0,0,0-4.08-21.35c-.47-1.91-1-3.84-1.56-5.79a44.53,44.53,0,0,0,5,7.18C763,542.47,770.34,547.3,779,548.4l-.26.35q-9.19,12.76-17.91,25.91C759.89,567.63,758.89,562.07,758.31,556.58ZM535.44,1037.75c-96.13,0-188-30.79-263.82-84.29A319.48,319.48,0,0,1,365,975.92c29.49,11.91,105.33,41.69,174.18,61.73C537.91,1037.66,536.68,1037.75,535.44,1037.75Zm98.33-7.19c-69.93-4.77-226.84-69.8-257.67-82.26-67.86-27.4-123-26.5-142.77-25-23.9-14.54-52.09-44.38-71-69.35,35.21-3.83,117.08-3,211.05,42.45,113.38,54.78,270.8,85.32,365.52,93.72C705.27,1006.79,670.68,1022.56,633.77,1030.56Zm152.7-67.82c-76,.25-268.5-29.52-400.16-93.14-116.52-56.3-211-39.89-241.22-34.36-20.72-17.87-29.85-50.67-39.87-73.73,68.71-6,177.76-.41,289.45,48.88,47.86,21.15,102.34,37.28,159.11,49.69,4.77,1.21,14.44,3.27,21.56,4.52,36.52,7.3,73.73,13.16,110.63,17.76,14.9,1.35,21.27,2.82,21.84,2.55C763,891.13,817,894.81,866,896.79A457.73,457.73,0,0,1,786.47,962.74Z"/><path class="cls-1" d="M885.39,1007c-43.68,31.21-97.71,44.22-161.25,39.08A559.88,559.88,0,0,0,964.21,878.13c8.82-10.52,17.1-21.48,25.13-32.62C973.46,899.71,943.1,965.76,885.39,1007Z"/><path class="cls-1" d="M868.19,842.87A1280.26,1280.26,0,0,0,994,800.32a527,527,0,0,1-329.73,240C675.9,995.7,719.88,880.6,868.19,842.87Z"/><path class="cls-3" d="M839.74,809.19c-171.59,43.65-210.21,191.9-216.33,222a489.37,489.37,0,0,1-78.48,6.29C343.49,1037.09,166.77,906.4,86,722,62,667.07,56.78,606.69,53.42,545.78,38.73,279.2,286.84,72.28,544.93,54.14,850.8,32.64,1052.85,347,1047.1,579l1.71-32.13c0-288.71-215.17-524.67-503.88-524.67S21.47,257.07,21.47,545.78A518.23,518.23,0,0,0,56.22,733.49c77.07,200.91,273.47,335.89,488.71,335.89a524.89,524.89,0,0,0,105.79-10.79q51.31,12.92,96.52,12.93c55.34,0,103.6-14.53,144.19-43.54,116.1-83,125.93-252.82,126.29-260l1.36-27.11-24.36,12C994.13,753.12,933.69,782.59,839.74,809.19ZM848,840a1193.66,1193.66,0,0,0,117.4-39.72,492,492,0,0,1-307.8,224C668.52,982.7,709.58,875.26,848,840ZM872.86,1002c-40.76,29.13-91.2,41.28-150.52,36.48a522.45,522.45,0,0,0,224.1-156.78c8.24-9.82,16-20,23.47-30.45C955.08,901.83,926.74,963.48,872.86,1002Z"/></svg>